<svg width="592" height="297" viewBox="0 0 592 297" fill="none" xmlns="http://www.w3.org/2000/svg">
<path fill-rule="evenodd" clip-rule="evenodd" d="M462 2C473.046 2 482 10.9543 482 22V171.739L587 211L482 239.304V275C482 286.046 473.046 295 462 295H22C10.9543 295 2 286.046 2 275V22C2 10.9543 10.9543 2 22 2H462Z" fill="white"/>
<path d="M482 171.739L481.475 173.144L480.5 172.78V171.739H482ZM587 211L587.525 209.595L591.903 211.232L587.39 212.448L587 211ZM482 239.304H480.5V238.155L481.61 237.856L482 239.304ZM480.5 22C480.5 11.7827 472.217 3.5 462 3.5V0.5C473.874 0.5 483.5 10.1259 483.5 22H480.5ZM480.5 171.739V22H483.5V171.739H480.5ZM586.475 212.405L481.475 173.144L482.525 170.334L587.525 209.595L586.475 212.405ZM481.61 237.856L586.61 209.552L587.39 212.448L482.39 240.753L481.61 237.856ZM480.5 275V239.304H483.5V275H480.5ZM462 293.5C472.217 293.5 480.5 285.217 480.5 275H483.5C483.5 286.874 473.874 296.5 462 296.5V293.5ZM22 293.5H462V296.5H22V293.5ZM3.5 275C3.5 285.217 11.7827 293.5 22 293.5V296.5C10.1259 296.5 0.5 286.874 0.5 275H3.5ZM3.5 22V275H0.5V22H3.5ZM22 3.5C11.7827 3.5 3.5 11.7827 3.5 22H0.5C0.5 10.1259 10.1259 0.5 22 0.5V3.5ZM462 3.5H22V0.5H462V3.5Z" fill="black"/>
</svg>
