<svg width="334" height="276" viewBox="0 0 334 276" fill="none" xmlns="http://www.w3.org/2000/svg">
<path fill-rule="evenodd" clip-rule="evenodd" d="M313 1C324.046 1 333 9.95433 333 21V217.414C333 228.46 324.046 237.414 313 237.414H99.1778L81.946 273L69.523 237.414H21C9.95432 237.414 1 228.46 1 217.414V21C1 9.95431 9.95432 1 21 1H313Z" fill="white"/>
<path d="M99.1778 237.414L98.2778 236.978L98.5509 236.414H99.1778V237.414ZM81.946 273L82.846 273.436L81.7959 275.604L81.0018 273.33L81.946 273ZM69.523 237.414V236.414H70.2331L70.4671 237.085L69.523 237.414ZM332 21C332 10.5066 323.493 2 313 2V0C324.598 0 334 9.40204 334 21H332ZM332 217.414V21H334V217.414H332ZM313 236.414C323.493 236.414 332 227.908 332 217.414H334C334 229.012 324.598 238.414 313 238.414V236.414ZM99.1778 236.414H313V238.414H99.1778V236.414ZM81.0459 272.564L98.2778 236.978L100.078 237.85L82.846 273.436L81.0459 272.564ZM70.4671 237.085L82.8901 272.67L81.0018 273.33L68.5789 237.744L70.4671 237.085ZM21 236.414H69.523V238.414H21V236.414ZM2 217.414C2 227.908 10.5066 236.414 21 236.414V238.414C9.40204 238.414 0 229.012 0 217.414H2ZM2 21V217.414H0V21H2ZM21 2C10.5066 2 2 10.5066 2 21H0C0 9.40202 9.40204 0 21 0V2ZM313 2H21V0H313V2Z" fill="black"/>
</svg>
