<svg width="334" height="289" viewBox="0 0 334 289" fill="none" xmlns="http://www.w3.org/2000/svg">
<path fill-rule="evenodd" clip-rule="evenodd" d="M21 1C9.9543 1 1 9.95431 1 21V234.241C1 245.287 9.95431 254.241 21 254.241H236.145L252.054 286L263.523 254.241H313C324.046 254.241 333 245.287 333 234.241V21C333 9.95431 324.046 1 313 1H21Z" fill="white"/>
<path d="M236.145 254.241L237.039 253.793L236.762 253.241H236.145V254.241ZM252.054 286L251.16 286.448L252.203 288.531L252.995 286.34L252.054 286ZM263.523 254.241V253.241H262.821L262.583 253.901L263.523 254.241ZM2 21C2 10.5066 10.5066 2 21 2V0C9.40202 0 0 9.40203 0 21H2ZM2 234.241V21H0V234.241H2ZM21 253.241C10.5066 253.241 2 244.734 2 234.241H0C0 245.839 9.40203 255.241 21 255.241V253.241ZM236.145 253.241H21V255.241H236.145V253.241ZM252.948 285.552L237.039 253.793L235.251 254.689L251.16 286.448L252.948 285.552ZM262.583 253.901L251.113 285.66L252.995 286.34L264.464 254.581L262.583 253.901ZM313 253.241H263.523V255.241H313V253.241ZM332 234.241C332 244.734 323.493 253.241 313 253.241V255.241C324.598 255.241 334 245.839 334 234.241H332ZM332 21V234.241H334V21H332ZM313 2C323.493 2 332 10.5066 332 21H334C334 9.40202 324.598 0 313 0V2ZM21 2H313V0H21V2Z" fill="black"/>
</svg>
