<svg width="592" height="348" viewBox="0 0 592 348" fill="none" xmlns="http://www.w3.org/2000/svg">
<path fill-rule="evenodd" clip-rule="evenodd" d="M130 2C118.954 2 110 10.9543 110 22V205.739L5 245L110 273.304V326C110 337.046 118.954 346 130 346H570C581.046 346 590 337.046 590 326V22C590 10.9543 581.046 2 570 2H130Z" fill="white"/>
<path d="M110 205.739L110.525 207.144L111.5 206.78V205.739H110ZM5 245L4.47465 243.595L0.0970016 245.232L4.60959 246.448L5 245ZM110 273.304H111.5V272.155L110.39 271.856L110 273.304ZM111.5 22C111.5 11.7827 119.783 3.5 130 3.5V0.5C118.126 0.5 108.5 10.1259 108.5 22H111.5ZM111.5 205.739V22H108.5V205.739H111.5ZM5.52535 246.405L110.525 207.144L109.475 204.334L4.47465 243.595L5.52535 246.405ZM110.39 271.856L5.39041 243.552L4.60959 246.448L109.61 274.753L110.39 271.856ZM111.5 326V273.304H108.5V326H111.5ZM130 344.5C119.783 344.5 111.5 336.217 111.5 326H108.5C108.5 337.874 118.126 347.5 130 347.5V344.5ZM570 344.5H130V347.5H570V344.5ZM588.5 326C588.5 336.217 580.217 344.5 570 344.5V347.5C581.874 347.5 591.5 337.874 591.5 326H588.5ZM588.5 22V326H591.5V22H588.5ZM570 3.5C580.217 3.5 588.5 11.7827 588.5 22H591.5C591.5 10.1259 581.874 0.5 570 0.5V3.5ZM130 3.5H570V0.5H130V3.5Z" fill="black"/>
</svg>
